<?xml version="1.0" standalone="no"?>
<!DOCTYPE svg PUBLIC "-//W3C//DTD SVG 20010904//EN"
 "http://www.w3.org/TR/2001/REC-SVG-20010904/DTD/svg10.dtd">
<svg version="1.0" xmlns="http://www.w3.org/2000/svg"
 width="300.000000pt" height="300.000000pt" viewBox="0 0 300.000000 300.000000"
 preserveAspectRatio="xMidYMid meet">
<metadata>
Created by potrace 1.11, written by Peter Selinger 2001-2013
</metadata>
<g transform="translate(0.000000,300.000000) scale(0.100000,-0.100000)"
fill="#000000" stroke="none">
<path d="M1362 2825 c-53 -28 -98 -69 -117 -109 -17 -33 -21 -171 -5 -181 6
-3 10 -17 10 -31 0 -13 -4 -24 -10 -24 -5 0 -10 -11 -10 -24 0 -14 -4 -28 -10
-31 -5 -3 -10 -17 -10 -30 0 -13 -4 -27 -10 -30 -5 -3 -10 -15 -10 -25 0 -11
-9 -35 -20 -55 -11 -20 -20 -47 -20 -60 0 -13 -9 -40 -20 -60 -11 -20 -20 -47
-20 -60 0 -14 -4 -25 -10 -25 -5 0 -10 -9 -10 -20 0 -11 -9 -35 -20 -55 -11
-20 -20 -42 -20 -50 0 -8 -9 -30 -20 -50 -11 -20 -20 -44 -20 -55 0 -10 -4
-22 -10 -25 -5 -3 -10 -17 -10 -30 0 -13 -4 -27 -10 -30 -5 -3 -10 -17 -10
-30 0 -13 -4 -27 -10 -30 -5 -3 -10 -15 -10 -25 0 -11 -9 -35 -20 -55 -11 -20
-20 -44 -20 -55 0 -10 -4 -22 -10 -25 -6 -3 -10 -21 -10 -39 0 -20 -8 -40 -19
-50 -11 -10 -21 -28 -23 -40 -3 -18 -5 -17 -21 13 -9 19 -17 40 -17 47 0 6
-13 38 -30 69 -16 31 -30 65 -30 74 0 9 -5 22 -11 28 -18 18 -3 31 79 70 88
41 132 77 132 107 0 12 -23 66 -50 121 -28 55 -50 105 -50 111 0 36 -80 154
-105 154 -6 0 -65 -27 -130 -60 -65 -33 -124 -60 -130 -60 -6 0 -74 -31 -150
-70 -76 -38 -145 -70 -152 -70 -37 0 -133 -83 -133 -115 0 -12 27 -75 60 -140
33 -65 60 -126 60 -135 0 -26 72 -90 102 -90 15 0 30 5 33 10 3 6 14 10 25 10
20 0 103 40 108 53 2 4 13 7 25 7 17 0 29 -16 54 -68 18 -37 33 -79 33 -93 0
-14 9 -34 20 -44 11 -10 20 -26 20 -36 0 -10 9 -34 20 -54 11 -20 20 -42 20
-49 0 -8 14 -40 30 -71 17 -31 30 -65 30 -75 0 -11 5 -22 10 -25 16 -10 11
-41 -10 -60 -12 -11 -20 -31 -20 -51 0 -18 -5 -36 -10 -39 -6 -3 -10 -15 -10
-25 0 -11 -9 -35 -20 -55 -11 -20 -20 -44 -20 -55 0 -10 -5 -22 -10 -25 -5 -3
-10 -16 -10 -29 0 -12 -4 -26 -8 -32 -5 -5 -15 -24 -22 -42 -12 -31 -11 -35
15 -62 28 -29 85 -42 85 -20 0 6 8 10 18 10 25 0 112 91 112 117 0 12 5 25 10
28 6 3 10 17 10 31 0 13 5 24 10 24 6 0 10 -8 10 -18 0 -10 22 -62 50 -116 27
-54 50 -106 50 -116 0 -10 5 -22 10 -25 6 -3 10 -17 10 -31 0 -13 5 -24 10
-24 6 0 10 -5 10 -10 0 -6 9 -30 20 -52 11 -23 20 -49 20 -58 0 -28 72 -90
106 -90 35 0 114 38 150 71 32 30 30 55 -6 124 -16 31 -30 63 -30 71 0 7 -9
29 -20 49 -11 20 -20 42 -20 49 0 8 -13 40 -30 71 -16 31 -30 62 -30 69 0 6
-13 38 -30 69 -16 32 -30 65 -30 72 0 8 -9 30 -20 50 -11 20 -20 42 -20 49 0
8 -13 40 -30 71 -16 31 -30 66 -30 76 0 10 -5 19 -12 19 -9 0 -9 3 0 12 7 7
12 22 12 34 0 13 5 26 10 29 6 3 10 17 10 30 0 13 5 27 10 30 6 3 10 17 10 30
0 13 4 27 10 30 5 3 10 17 10 30 0 13 5 27 10 30 6 3 10 17 10 30 0 13 5 27
10 30 6 3 10 17 10 30 0 13 5 27 10 30 6 3 10 17 10 30 0 13 5 27 10 30 6 3
10 14 10 24 0 34 24 71 47 71 12 0 25 5 28 10 3 6 15 10 26 10 39 0 119 61
119 92 0 9 9 33 20 53 11 20 20 44 20 55 0 10 5 22 10 25 6 3 10 14 10 25 0
10 9 35 19 57 11 21 22 51 26 66 5 24 8 27 20 17 8 -7 15 -21 15 -31 0 -10 9
-34 20 -54 11 -20 20 -42 20 -50 0 -8 9 -30 20 -50 11 -20 20 -42 20 -49 0
-44 71 -124 130 -146 77 -28 90 -36 90 -52 0 -10 9 -33 20 -53 11 -20 20 -42
20 -50 0 -8 9 -30 20 -50 11 -20 20 -44 20 -55 0 -10 5 -22 10 -25 6 -3 10
-17 10 -30 0 -13 5 -27 10 -30 6 -3 10 -15 10 -25 0 -11 9 -35 20 -55 11 -20
20 -44 20 -55 0 -10 5 -22 10 -25 6 -3 10 -19 10 -35 0 -16 -4 -32 -10 -35 -5
-3 -10 -17 -10 -30 0 -13 -4 -27 -10 -30 -5 -3 -10 -19 -10 -35 0 -15 -4 -30
-8 -32 -9 -3 -52 -93 -52 -108 0 -5 -9 -25 -20 -45 -11 -20 -20 -42 -20 -50 0
-8 -9 -30 -20 -50 -11 -20 -20 -42 -20 -50 0 -8 -9 -30 -20 -50 -11 -20 -20
-44 -20 -55 0 -10 -5 -22 -10 -25 -5 -3 -10 -17 -10 -30 0 -13 -4 -27 -10 -30
-5 -3 -10 -14 -10 -25 0 -10 -14 -44 -30 -75 -17 -31 -30 -62 -30 -69 0 -20
75 -86 97 -86 12 0 25 -4 28 -10 3 -5 16 -10 29 -10 12 0 27 -5 34 -12 16 -16
92 57 92 88 0 13 5 26 10 29 6 3 10 14 10 25 0 10 14 44 30 75 17 31 30 63 30
71 0 7 9 29 20 49 11 20 20 42 20 50 0 8 9 30 20 50 11 20 20 44 20 55 0 10 4
22 10 25 5 3 10 15 10 26 0 11 5 17 10 14 6 -3 10 -17 10 -30 0 -13 5 -27 10
-30 6 -3 10 -16 10 -29 0 -28 54 -80 115 -112 60 -30 63 -30 97 3 28 27 38 76
18 88 -5 3 -10 17 -10 31 0 13 -4 24 -10 24 -5 0 -10 11 -10 25 0 13 -9 40
-20 60 -11 20 -20 42 -20 49 0 8 -13 40 -30 71 -16 31 -30 63 -30 71 0 8 -6
23 -12 34 -10 16 -10 24 0 40 6 11 12 29 12 39 0 11 5 23 10 26 6 3 10 15 10
25 0 11 9 35 20 55 11 20 20 42 20 49 0 8 14 40 30 71 17 31 30 67 30 80 0 13
14 49 30 80 17 31 30 63 30 69 0 16 28 74 39 81 5 2 27 -4 49 -15 23 -11 47
-20 55 -20 8 0 20 -7 27 -15 7 -8 50 -33 96 -55 46 -23 86 -45 89 -50 3 -4 39
-25 79 -45 75 -37 124 -43 118 -15 -2 8 0 12 4 8 17 -18 34 17 34 71 0 55 -1
58 -55 111 -30 30 -55 59 -55 65 0 6 -27 37 -60 70 -33 33 -60 64 -60 70 0 14
-130 141 -153 148 -24 9 -33 36 -19 58 10 16 7 25 -24 59 -20 22 -45 40 -55
40 -10 0 -34 9 -54 20 -51 28 -78 25 -111 -12 -34 -39 -48 -38 -130 2 l-59 29
-33 -32 c-34 -33 -62 -80 -62 -104 0 -7 -4 -13 -10 -13 -5 0 -10 -11 -10 -23
0 -13 -9 -32 -20 -42 -29 -26 -27 -85 4 -114 31 -29 113 -71 139 -71 16 0 18
-5 12 -27 -3 -16 -9 -42 -12 -60 -3 -17 -14 -39 -24 -49 -10 -9 -19 -27 -19
-40 0 -13 -4 -26 -10 -29 -6 -3 -10 -14 -10 -24 0 -10 -11 -38 -23 -64 l-24
-46 -16 38 c-10 21 -17 45 -17 54 0 9 -4 19 -10 22 -5 3 -10 16 -10 29 0 13
-9 31 -20 41 -11 10 -20 28 -20 41 0 13 -4 26 -10 29 -5 3 -10 17 -10 30 0 13
-4 27 -10 30 -5 3 -10 17 -10 30 0 13 -4 27 -10 30 -5 3 -10 14 -10 25 0 10
-13 44 -30 75 -16 31 -30 65 -30 75 0 11 -4 22 -10 25 -5 3 -10 14 -10 24 0
21 -22 71 -32 71 -5 0 -8 9 -8 19 0 11 -4 23 -10 26 -5 3 -10 17 -10 30 0 13
-4 27 -10 30 -5 3 -10 15 -10 25 0 11 -9 35 -20 55 -11 20 -20 42 -20 50 0 8
-9 30 -20 50 -11 20 -20 44 -20 55 0 10 -4 22 -10 25 -5 3 -10 16 -10 29 0 12
-5 27 -12 34 -9 9 -9 15 0 24 16 16 16 152 0 181 -25 43 -103 116 -125 117
-12 0 -25 5 -28 10 -11 17 -78 9 -123 -15z"/>
<path d="M1353 1728 c-17 -18 -36 -43 -42 -55 -14 -27 -15 -150 -1 -158 6 -3
10 -17 10 -30 0 -13 5 -27 10 -30 6 -4 10 -54 10 -118 0 -95 3 -117 21 -146
11 -18 19 -45 17 -60 l-3 -26 -135 -3 c-121 -2 -137 -5 -157 -24 -24 -22 -30
-52 -13 -63 5 -3 10 -14 10 -24 0 -10 23 -62 50 -116 28 -54 50 -104 50 -110
0 -7 18 -47 40 -90 22 -43 40 -83 40 -90 0 -7 18 -47 40 -90 22 -43 40 -85 40
-95 0 -9 9 -25 20 -35 11 -10 20 -26 20 -35 0 -24 26 -73 50 -95 20 -18 21
-18 55 15 19 19 35 41 35 50 0 8 27 68 60 133 33 65 60 127 60 137 0 10 5 22
10 25 6 3 10 17 10 30 0 13 5 27 11 31 6 3 19 25 29 49 10 24 23 46 29 49 6 4
11 16 11 26 0 11 9 35 20 55 11 20 20 42 20 49 0 8 14 40 30 71 36 69 37 94 7
123 -21 20 -34 22 -150 22 l-127 0 0 49 c0 33 6 56 20 74 23 29 27 96 8 127
-10 16 -10 24 0 40 6 11 12 37 12 58 0 21 4 42 9 48 6 5 11 46 12 92 l2 83
-44 45 c-42 43 -44 44 -109 44 -62 0 -68 -2 -97 -32z"/>
</g>
</svg>
